# Blender v2.93.5 OBJ File: 'FlashLightOutBodyGlows.blend'
# www.blender.org
mtllib FlashLightOutBodyGlows.mtl
o Lanterna_Cylinder
v 0.831470 0.555569 4.000000
v 0.831470 0.555569 3.909954
v 0.923880 0.382682 4.000000
v 0.923880 0.382682 3.909954
v -0.831469 0.555570 4.000000
v -0.831469 0.555570 3.909954
v -0.707106 0.883213 4.000000
v -0.707106 0.883213 3.909954
v 0.831470 -0.555570 -3.000000
v 0.707107 -0.707107 -3.000000
v 0.636396 -0.636396 -3.000000
v 0.748323 -0.500013 -3.000000
v -1.097539 0.733353 4.903784
v -0.933380 0.933381 4.903784
v 1.097540 0.733352 4.903784
v 1.219521 0.505141 4.903784
v 0.000000 -1.452001 6.978917
v -0.283272 -1.424101 6.978917
v -1.207293 0.806689 6.003784
v -1.026718 1.026720 6.003784
v 1.207294 0.806687 6.003784
v 1.341473 0.555656 6.003784
v 1.341473 0.555656 6.978917
v 1.207294 0.806687 6.978917
v 1.086565 0.726018 6.978917
v 1.207326 0.500090 6.978917
v 0.806688 1.207293 6.978917
v 1.026719 1.026718 6.978917
v -0.555654 1.341473 6.978917
v -0.283269 1.424100 6.978917
v -0.555657 -1.341474 6.978917
v 0.000000 1.451999 6.978917
v -0.806689 -1.207294 6.978917
v -1.026720 -1.026719 6.978917
v 1.424100 0.283270 6.978917
v -1.207294 -0.806688 6.978917
v 1.452000 -0.000001 6.978917
v -1.341474 -0.555656 6.978917
v 1.424100 -0.283272 6.978917
v -1.424100 -0.283271 6.978917
v 1.341473 -0.555657 6.978917
v -1.452000 0.000001 6.978917
v 1.207294 -0.806689 6.978917
v -1.424100 0.283272 6.978917
v 1.026719 -1.026720 6.978917
v -1.341473 0.555657 6.978917
v 0.806688 -1.207295 6.978917
v -1.207293 0.806689 6.978917
v 0.555656 -1.341474 6.978917
v 0.283271 1.424099 6.978917
v -1.026718 1.026720 6.978917
v 0.283271 -1.424101 6.978917
v 0.555656 1.341472 6.978917
v -0.806686 1.207294 6.978917
v 1.281690 -0.254945 6.978917
v 1.306800 -0.000001 6.978917
v -0.726020 -1.086565 6.978917
v -0.924048 -0.924047 6.978917
v 1.281690 0.254943 6.978917
v -1.086565 -0.726019 6.978917
v -1.207326 -0.500091 6.978917
v -1.281690 -0.254944 6.978917
v 1.207326 -0.500091 6.978917
v -1.306800 0.000001 6.978917
v 1.086565 -0.726020 6.978917
v -1.281690 0.254945 6.978917
v 0.924047 -0.924048 6.978917
v -1.207325 0.500091 6.978917
v 0.726019 -1.086565 6.978917
v -1.086564 0.726020 6.978917
v 0.500091 -1.207327 6.978917
v 0.000000 1.306799 6.978917
v 0.254944 1.281690 6.978917
v -0.924046 0.924048 6.978917
v 0.254944 -1.281691 6.978917
v 0.500091 1.207325 6.978917
v -0.726018 1.086565 6.978917
v 0.000000 -1.306801 6.978917
v 0.726019 1.086564 6.978917
v -0.500089 1.207326 6.978917
v -0.254944 -1.281691 6.978917
v 0.924047 0.924047 6.978917
v -0.254942 1.281690 6.978917
v -0.500091 -1.207326 6.978917
v -0.707106 0.707108 1.746534
v -0.707106 0.878788 2.253068
v -0.831469 0.555571 2.152701
v -0.831469 0.555571 2.302295
v 0.923880 0.382683 2.152701
v 0.923880 0.382683 2.302295
v 0.831470 0.555570 2.152701
v 0.831470 0.555570 2.302295
v 0.000000 1.000000 -3.000000
v 0.195090 0.980785 -3.000000
v 0.382683 0.923880 -3.000000
v 0.555570 0.831469 -3.000000
v 0.707107 0.707107 -3.000000
v 0.831470 0.555570 -3.000000
v 0.923880 0.382683 -3.000000
v 0.980785 0.195090 -3.000000
v 1.000000 0.000000 -3.000000
v 0.980785 -0.195090 -3.000000
v 0.923880 -0.382683 -3.000000
v 0.555570 -0.831470 -3.000000
v 0.382683 -0.923880 -3.000000
v 0.195090 -0.980785 -3.000000
v 0.000000 -1.000000 -3.000000
v -0.195091 -0.980785 -3.000000
v -0.382684 -0.923879 -3.000000
v -0.555571 -0.831469 -3.000000
v -0.707107 -0.707106 -3.000000
v -0.831470 -0.555570 -3.000000
v -0.923880 -0.382683 -3.000000
v -0.980785 -0.195090 -3.000000
v -1.000000 0.000001 -3.000000
v -0.980785 0.195091 -3.000000
v -0.923879 0.382684 -3.000000
v -0.831469 0.555571 -3.000000
v -0.707106 0.707108 -3.000000
v -0.555569 0.831470 -3.000000
v -0.382682 0.923880 -3.000000
v -0.195089 0.980785 -3.000000
v -0.707106 0.883214 2.365213
v -0.831469 0.555571 2.365213
v 0.923880 0.382683 2.365213
v 0.831470 0.555570 2.365213
v 0.000000 0.900000 -3.000000
v 0.175581 0.882707 -3.000000
v 0.344415 0.831491 -3.000000
v 0.500013 0.748324 -3.000000
v 0.636396 0.636396 -3.000000
v 0.748323 0.500013 -3.000000
v 0.831492 0.344415 -3.000000
v 0.882707 0.175581 -3.000000
v 0.900000 0.000000 -3.000000
v 0.882707 -0.175581 -3.000000
v 0.831492 -0.344415 -3.000000
v 0.500013 -0.748323 -3.000000
v 0.344415 -0.831492 -3.000000
v 0.175581 -0.882707 -3.000000
v 0.000000 -0.899999 -3.000000
v -0.175581 -0.882707 -3.000000
v -0.344415 -0.831492 -3.000000
v -0.500013 -0.748323 -3.000000
v -0.636396 -0.636396 -3.000000
v -0.748323 -0.500013 -3.000000
v -0.831492 -0.344415 -3.000000
v -0.882707 -0.175581 -3.000000
v -0.900000 0.000001 -3.000000
v -0.882706 0.175582 -3.000000
v -0.831491 0.344416 -3.000000
v -0.748322 0.500014 -3.000000
v -0.636395 0.636397 -3.000000
v -0.500012 0.748324 -3.000000
v -0.344414 0.831492 -3.000000
v -0.175580 0.882707 -3.000000
vt 0.474251 0.747904
vt 0.478691 0.747904
vt 0.478691 0.757569
vt 0.474251 0.757569
vt 0.256401 0.752617
vt 0.258258 0.759035
vt 0.233280 0.766264
vt 0.231423 0.759846
vt 0.899986 0.217783
vt 0.886568 0.226748
vt 0.882688 0.219489
vt 0.894764 0.211420
vt 0.825573 0.653117
vt 0.816257 0.657045
vt 0.803713 0.619461
vt 0.816938 0.616112
vt 0.852750 0.695124
vt 0.854063 0.689183
vt 0.892374 0.693730
vt 0.889217 0.706719
vt 0.791972 0.659482
vt 0.787883 0.665406
vt 0.747078 0.644136
vt 0.756172 0.630655
vt 0.852601 0.667277
vt 0.848561 0.661189
vt 0.883772 0.631602
vt 0.892738 0.644994
vt 0.436926 0.417317
vt 0.410082 0.430677
vt 0.404386 0.416433
vt 0.428826 0.403375
vt 0.867517 0.688152
vt 0.867597 0.679222
vt 0.913166 0.674173
vt 0.913132 0.692167
vt 0.808417 0.639306
vt 0.800001 0.642606
vt 0.778019 0.602180
vt 0.794687 0.595312
vt 0.265792 0.159212
vt 0.294858 0.154349
vt 0.295942 0.169350
vt 0.269486 0.173928
vt 0.463700 0.399513
vt 0.451410 0.385551
vt 0.237867 0.168543
vt 0.243757 0.182639
vt 0.492510 0.371565
vt 0.469774 0.361434
vt 0.211094 0.182082
vt 0.219456 0.195870
vt 0.492808 0.331427
vt 0.474187 0.331665
vt 0.184457 0.199761
vt 0.196861 0.213565
vt 0.487178 0.299759
vt 0.471382 0.303115
vt 0.155833 0.227685
vt 0.178570 0.237752
vt 0.478279 0.271102
vt 0.463876 0.276451
vt 0.155587 0.267795
vt 0.174203 0.267537
vt 0.465602 0.244456
vt 0.452382 0.251807
vt 0.161225 0.299457
vt 0.177031 0.296091
vt 0.449037 0.220279
vt 0.437234 0.229565
vt 0.170132 0.328154
vt 0.184560 0.322751
vt 0.428912 0.199186
vt 0.418812 0.210200
vt 0.295517 0.440044
vt 0.268104 0.430862
vt 0.274129 0.417294
vt 0.299266 0.425661
vt 0.182967 0.354907
vt 0.196111 0.347333
vt 0.405735 0.181692
vt 0.397578 0.194157
vt 0.324118 0.444685
vt 0.325492 0.429837
vt 0.199518 0.378970
vt 0.211114 0.369647
vt 0.380096 0.168205
vt 0.374068 0.181807
vt 0.353216 0.444648
vt 0.352172 0.429696
vt 0.219480 0.399893
vt 0.229522 0.388937
vt 0.352639 0.159020
vt 0.348879 0.173424
vt 0.382094 0.439918
vt 0.378670 0.425211
vt 0.242542 0.417367
vt 0.250690 0.404951
vt 0.324013 0.154349
vt 0.322625 0.169221
vt 0.220154 0.627371
vt 0.223239 0.638033
vt 0.197541 0.641667
vt 0.198344 0.601991
vt 0.387612 0.747904
vt 0.394988 0.747904
vt 0.394988 0.757569
vt 0.387612 0.757569
vt 0.854039 0.450875
vt 0.786247 0.295324
vt 0.808026 0.289947
vt 0.845598 0.454946
vt 0.856353 0.373607
vt 0.766882 0.516796
vt 0.769949 0.474268
vt 0.863372 0.379465
vt 0.224537 0.642518
vt 0.199559 0.649747
vt 0.398090 0.747904
vt 0.398090 0.757569
vt 0.775164 0.192955
vt 0.768989 0.178046
vt 0.776866 0.175656
vt 0.782424 0.189074
vt 0.823867 0.075376
vt 0.839695 0.072227
vt 0.840501 0.080420
vt 0.826257 0.083253
vt 0.929686 0.162218
vt 0.926538 0.178046
vt 0.918660 0.175656
vt 0.921493 0.161411
vt 0.823867 0.232924
vt 0.808958 0.226748
vt 0.812839 0.219489
vt 0.826257 0.225046
vt 0.775164 0.115345
vt 0.784130 0.101927
vt 0.790493 0.107149
vt 0.782424 0.119225
vt 0.911396 0.101927
vt 0.920362 0.115345
vt 0.913102 0.119225
vt 0.905033 0.107149
vt 0.871659 0.232924
vt 0.869270 0.225046
vt 0.765841 0.162218
vt 0.774033 0.161412
vt 0.855832 0.072227
vt 0.855025 0.080420
vt 0.920362 0.192955
vt 0.913102 0.189074
vt 0.795541 0.217783
vt 0.800763 0.211420
vt 0.795541 0.090516
vt 0.800763 0.096880
vt 0.926537 0.130254
vt 0.918660 0.132643
vt 0.855832 0.236072
vt 0.855025 0.227880
vt 0.765841 0.146081
vt 0.774033 0.146888
vt 0.871659 0.075376
vt 0.886568 0.081551
vt 0.882687 0.088811
vt 0.869269 0.083253
vt 0.911397 0.206372
vt 0.905033 0.201150
vt 0.784130 0.206372
vt 0.790493 0.201150
vt 0.808958 0.081551
vt 0.812839 0.088811
vt 0.929686 0.146081
vt 0.921493 0.146888
vt 0.839695 0.236072
vt 0.840501 0.227880
vt 0.768989 0.130254
vt 0.776866 0.132644
vt 0.899986 0.090516
vt 0.894763 0.096880
vn 0.8315 0.5556 -0.0000
vn 0.8192 0.5474 -0.1711
vn 0.9103 0.3770 -0.1711
vn 0.9239 0.3827 0.0000
vn -0.9103 0.4140 -0.0000
vn -0.8850 0.4386 -0.1564
vn -0.7747 0.6161 -0.1424
vn -0.7983 0.6020 -0.0191
vn 0.6052 -0.4044 -0.6857
vn 0.5147 -0.5147 -0.6857
vn 0.0000 0.0000 -1.0000
vn -0.8358 0.5054 -0.2145
vn -0.7304 0.6577 -0.1845
vn 0.8099 0.5411 -0.2263
vn 0.8999 0.3728 -0.2263
vn -0.8300 0.5546 -0.0595
vn -0.7059 0.7059 -0.0595
vn 0.8300 0.5546 -0.0595
vn 0.9222 0.3820 -0.0595
vn 0.6725 0.2785 0.6857
vn 0.6052 0.4044 0.6857
vn -0.4104 -0.2742 0.8697
vn -0.4560 -0.1889 0.8697
vn -0.6052 0.4044 0.6857
vn -0.5147 0.5147 0.6857
vn -0.5147 -0.5147 0.6857
vn -0.4044 -0.6052 0.6857
vn 0.2742 0.4104 0.8697
vn 0.3490 0.3490 0.8697
vn 0.7139 0.1420 0.6857
vn -0.4841 -0.0963 0.8697
vn -0.6052 -0.4044 0.6857
vn 0.4104 0.2742 0.8697
vn 0.7279 -0.0000 0.6857
vn -0.4936 0.0000 0.8697
vn -0.6725 -0.2786 0.6857
vn 0.4560 0.1889 0.8697
vn 0.7139 -0.1420 0.6857
vn -0.4841 0.0963 0.8697
vn -0.7139 -0.1420 0.6857
vn 0.4841 0.0963 0.8697
vn 0.6725 -0.2786 0.6857
vn -0.4560 0.1889 0.8697
vn -0.7279 0.0000 0.6857
vn 0.4936 0.0000 0.8697
vn 0.6052 -0.4044 0.6857
vn -0.4104 0.2742 0.8697
vn -0.7139 0.1420 0.6857
vn 0.4841 -0.0963 0.8697
vn 0.5147 -0.5147 0.6857
vn -0.3490 0.3490 0.8697
vn -0.6725 0.2786 0.6857
vn 0.4560 -0.1889 0.8697
vn 0.4044 -0.6052 0.6857
vn -0.2742 0.4104 0.8697
vn 0.4104 -0.2742 0.8697
vn 0.2785 -0.6725 0.6857
vn -0.1889 0.4560 0.8697
vn 0.1420 0.7139 0.6857
vn 0.0000 0.7279 0.6857
vn 0.0000 -0.4936 0.8697
vn -0.0963 -0.4841 0.8697
vn 0.3490 -0.3490 0.8697
vn 0.1420 -0.7139 0.6857
vn -0.0963 0.4841 0.8697
vn 0.2786 0.6725 0.6857
vn -0.1889 -0.4560 0.8697
vn -0.4044 0.6052 0.6857
vn 0.2742 -0.4104 0.8697
vn 0.0000 -0.7279 0.6857
vn 0.0000 0.4936 0.8697
vn 0.4044 0.6052 0.6857
vn -0.2742 -0.4104 0.8697
vn -0.2785 0.6725 0.6857
vn 0.1889 -0.4560 0.8697
vn -0.1420 -0.7139 0.6857
vn 0.0963 0.4841 0.8697
vn 0.5147 0.5147 0.6857
vn -0.3490 -0.3490 0.8697
vn -0.1420 0.7139 0.6857
vn 0.0963 -0.4841 0.8697
vn -0.2786 -0.6725 0.6857
vn 0.1889 0.4560 0.8697
vn -0.8932 0.4476 -0.0433
vn -0.9066 0.4213 -0.0254
vn -0.7882 0.6081 -0.0944
vn -0.7339 0.6760 -0.0671
vn 0.6052 0.4044 -0.6857
vn 0.6725 0.2785 -0.6857
vn -0.6052 0.4044 -0.6857
vn -0.5147 0.5147 -0.6857
vn -0.9101 0.4144 -0.0023
vn -0.7956 0.6058 0.0063
vn -0.5147 -0.5147 -0.6857
vn -0.6052 -0.4044 -0.6857
vn -0.4044 0.6052 -0.6857
vn -0.2786 0.6725 -0.6857
vn 0.7139 0.1420 -0.6857
vn 0.7279 0.0000 -0.6857
vn 0.0000 -0.7279 -0.6857
vn -0.1420 -0.7139 -0.6857
vn -0.7139 0.1420 -0.6857
vn -0.6725 0.2785 -0.6857
vn 0.4044 0.6052 -0.6857
vn 0.5147 0.5147 -0.6857
vn 0.4044 -0.6052 -0.6857
vn -0.6725 -0.2785 -0.6857
vn -0.1420 0.7139 -0.6857
vn 0.7139 -0.1420 -0.6857
vn -0.2785 -0.6725 -0.6857
vn 0.2785 -0.6725 -0.6857
vn -0.7139 -0.1420 -0.6857
vn 0.0000 0.7279 -0.6857
vn 0.1420 0.7139 -0.6857
vn 0.6725 -0.2786 -0.6857
vn -0.4044 -0.6052 -0.6857
vn 0.1420 -0.7139 -0.6857
vn -0.7279 -0.0000 -0.6857
vn 0.2785 0.6725 -0.6857
usemtl None
s 1
f 2/1/1 1/2/2 3/3/3 4/4/4
f 6/5/5 5/6/6 7/7/7 8/8/8
f 9/9/9 10/10/10 11/11/11 12/12/11
f 7/13/7 5/14/6 13/15/12 14/16/13
f 3/17/3 1/18/2 15/19/14 16/20/15
f 14/21/13 13/22/12 19/23/16 20/24/17
f 16/25/15 15/26/14 21/27/18 22/28/19
f 23/29/20 24/30/21 25/31/22 26/32/23
f 22/33/19 21/34/18 24/35/21 23/36/20
f 20/37/17 19/38/16 48/39/24 51/40/25
f 34/41/26 33/42/27 57/43/28 58/44/29
f 35/45/30 23/29/20 26/32/23 59/46/31
f 36/47/32 34/41/26 58/44/29 60/48/33
f 37/49/34 35/45/30 59/46/31 56/50/35
f 38/51/36 36/47/32 60/48/33 61/52/37
f 39/53/38 37/49/34 56/50/35 55/54/39
f 40/55/40 38/51/36 61/52/37 62/56/41
f 41/57/42 39/53/38 55/54/39 63/58/43
f 42/59/44 40/55/40 62/56/41 64/60/45
f 43/61/46 41/57/42 63/58/43 65/62/47
f 44/63/48 42/59/44 64/60/45 66/64/49
f 45/65/50 43/61/46 65/62/47 67/66/51
f 46/67/52 44/63/48 66/64/49 68/68/53
f 47/69/54 45/65/50 67/66/51 69/70/55
f 48/71/24 46/67/52 68/68/53 70/72/56
f 49/73/57 47/69/54 69/70/55 71/74/58
f 50/75/59 32/76/60 72/77/61 73/78/62
f 51/79/25 48/71/24 70/72/56 74/80/63
f 52/81/64 49/73/57 71/74/58 75/82/65
f 53/83/66 50/75/59 73/78/62 76/84/67
f 54/85/68 51/79/25 74/80/63 77/86/69
f 17/87/70 52/81/64 75/82/65 78/88/71
f 27/89/72 53/83/66 76/84/67 79/90/73
f 29/91/74 54/85/68 77/86/69 80/92/75
f 18/93/76 17/87/70 78/88/71 81/94/77
f 28/95/78 27/89/72 79/90/73 82/96/79
f 30/97/80 29/91/74 80/92/75 83/98/81
f 31/99/82 18/93/76 81/94/77 84/100/83
f 24/30/21 28/95/78 82/96/79 25/31/22
f 32/76/60 30/97/80 83/98/81 72/77/61
f 33/42/27 31/99/82 84/100/83 57/43/28
f 87/101/84 88/102/85 86/103/86 85/104/87
f 91/105/1 92/106/1 90/107/4 89/108/4
f 98/109/88 91/110/1 89/111/4 99/112/89
f 118/113/90 87/114/84 85/115/87 119/116/91
f 124/117/92 6/5/5 8/8/8 123/118/93
f 126/119/1 2/1/1 4/4/4 125/120/4
f 92/106/1 126/119/1 125/120/4 90/107/4
f 88/102/85 124/117/92 123/118/93 86/103/86
f 111/121/94 112/122/95 146/123/11 145/124/11
f 120/125/96 121/126/97 155/127/11 154/128/11
f 100/129/98 101/130/99 135/131/11 134/132/11
f 107/133/100 108/134/101 142/135/11 141/136/11
f 116/137/102 117/138/103 151/139/11 150/140/11
f 96/141/104 97/142/105 131/143/11 130/144/11
f 10/10/10 104/145/106 138/146/11 11/11/11
f 112/122/95 113/147/107 147/148/11 146/123/11
f 121/126/97 122/149/108 156/150/11 155/127/11
f 101/130/99 102/151/109 136/152/11 135/131/11
f 108/134/101 109/153/110 143/154/11 142/135/11
f 117/138/103 118/155/90 152/156/11 151/139/11
f 97/142/105 98/157/88 132/158/11 131/143/11
f 104/145/106 105/159/111 139/160/11 138/146/11
f 113/147/107 114/161/112 148/162/11 147/148/11
f 93/163/113 94/164/114 128/165/11 127/166/11
f 122/149/108 93/163/113 127/166/11 156/150/11
f 102/151/109 103/167/115 137/168/11 136/152/11
f 109/153/110 110/169/116 144/170/11 143/154/11
f 118/155/90 119/171/91 153/172/11 152/156/11
f 98/157/88 99/173/89 133/174/11 132/158/11
f 105/159/111 106/175/117 140/176/11 139/160/11
f 114/161/112 115/177/118 149/178/11 148/162/11
f 94/164/114 95/179/119 129/180/11 128/165/11
f 103/167/115 9/9/9 12/12/11 137/168/11
f 110/169/116 111/121/94 145/124/11 144/170/11
f 119/171/91 120/125/96 154/128/11 153/172/11
f 99/173/89 100/129/98 134/132/11 133/174/11
f 106/175/117 107/133/100 141/136/11 140/176/11
f 115/177/118 116/137/102 150/140/11 149/178/11
f 95/179/119 96/141/104 130/144/11 129/180/11
